<?xml version="1.0" encoding="UTF-8" standalone="no"?>
<!-- Created with Inkscape (http://www.inkscape.org/) -->

<svg
   xmlns:dc="http://purl.org/dc/elements/1.1/"
   xmlns:cc="http://creativecommons.org/ns#"
   xmlns:rdf="http://www.w3.org/1999/02/22-rdf-syntax-ns#"
   xmlns:svg="http://www.w3.org/2000/svg"
   xmlns="http://www.w3.org/2000/svg"
   xmlns:sodipodi="http://sodipodi.sourceforge.net/DTD/sodipodi-0.dtd"
   xmlns:inkscape="http://www.inkscape.org/namespaces/inkscape"
   width="744.09448819"
   height="1052.3622047"
   id="svg2"
   version="1.1"
   inkscape:version="0.48.3.1 r9886"
   sodipodi:docname="New document 1">
  <defs
     id="defs4">
    <inkscape:perspective
       sodipodi:type="inkscape:persp3d"
       inkscape:vp_x="-316.45649 : 897.81418 : 1"
       inkscape:vp_y="940.28139 : 340.39816 : 0"
       inkscape:vp_z="-63.168097 : 198.15599 : 1"
       inkscape:persp3d-origin="-354.73172 : 488.28139 : 1"
       id="perspective2991" />
  </defs>
  <sodipodi:namedview
     id="base"
     pagecolor="#ffffff"
     bordercolor="#666666"
     borderopacity="1.0"
     inkscape:pageopacity="0.0"
     inkscape:pageshadow="2"
     inkscape:zoom="2.0266227"
     inkscape:cx="163.24681"
     inkscape:cy="929.76385"
     inkscape:document-units="px"
     inkscape:current-layer="layer1"
     showgrid="false"
     inkscape:window-width="1105"
     inkscape:window-height="767"
     inkscape:window-x="1584"
     inkscape:window-y="118"
     inkscape:window-maximized="0" />
  <metadata
     id="metadata7">
    <rdf:RDF>
      <cc:Work
         rdf:about="">
        <dc:format>image/svg+xml</dc:format>
        <dc:type
           rdf:resource="http://purl.org/dc/dcmitype/StillImage" />
        <dc:title></dc:title>
      </cc:Work>
    </rdf:RDF>
  </metadata>
  <g
     inkscape:label="Layer 1"
     inkscape:groupmode="layer"
     id="layer1">
    <g
       sodipodi:type="inkscape:box3d"
       id="g2993"
       inkscape:perspectiveID="#perspective2991"
       inkscape:corner0="3.7308826 : 2.0343818 : 0 : 1"
       inkscape:corner7="2.3570546 : 1.7740446 : 0.3925517 : 1">
      <path
         sodipodi:type="inkscape:box3dside"
         id="path3005"
         style="fill:#e9e9ff;fill-rule:evenodd;stroke:none"
         inkscape:box3dsidetype="11"
         d="M 68.840713,152.92506 210.01076,152.33043 144.72651,175.96446 21.06217,170.22172 z" />
      <path
         sodipodi:type="inkscape:box3dside"
         id="path2995"
         style="fill:#353564;fill-rule:evenodd;stroke:none"
         inkscape:box3dsidetype="6"
         d="M 79.794332,94.735267 28.051296,113.46714 21.06217,170.22172 68.840713,152.92506 z" />
      <path
         sodipodi:type="inkscape:box3dside"
         id="path2997"
         style="fill:#4d4d9f;fill-rule:evenodd;stroke:none"
         inkscape:box3dsidetype="5"
         d="M 79.794332,94.735267 241.95448,70.257735 210.01076,152.33043 68.840713,152.92506 z" />
      <path
         sodipodi:type="inkscape:box3dside"
         id="path3003"
         style="fill:#afafde;fill-rule:evenodd;stroke:none"
         inkscape:box3dsidetype="13"
         d="M 28.051296,113.46714 169.03633,96.65537 144.72651,175.96446 21.06217,170.22172 z" />
      <path
         sodipodi:type="inkscape:box3dside"
         id="path3001"
         style="fill:#d7d7ff;fill-rule:evenodd;stroke:none"
         inkscape:box3dsidetype="14"
         d="m 241.95448,70.257735 -72.91815,26.397635 -24.30982,79.30909 65.28425,-23.63403 z" />
      <path
         sodipodi:type="inkscape:box3dside"
         id="path2999"
         style="fill:#8686bf;fill-rule:evenodd;stroke:none"
         inkscape:box3dsidetype="3"
         d="M 79.794332,94.735267 241.95448,70.257735 169.03633,96.65537 28.051296,113.46714 z" />
    </g>
    <path
       style="font-size:40px;font-style:normal;font-variant:normal;font-weight:bold;font-stretch:normal;text-align:start;line-height:125%;letter-spacing:0px;word-spacing:0px;writing-mode:lr-tb;text-anchor:start;fill:#000000;fill-opacity:1;stroke:none;font-family:Untitled1;-inkscape-font-specification:Untitled1 Bold"
       d="m 33.329267,115.13137 0,30.40625 7,0 0,-3.15625 c 0.96353,1.27604 2.015613,2.20052 3.1875,2.8125 1.17186,0.59896 2.539046,0.90625 4.0625,0.90625 2.695292,0 4.893207,-1.08333 6.625,-3.21875 1.731745,-2.14843 2.593723,-4.90884 2.59375,-8.28125 -2.7e-5,-3.37238 -0.862005,-6.11456 -2.59375,-8.25 -1.731793,-2.14841 -3.929708,-3.21872 -6.625,-3.21875 -1.523454,3e-5 -2.89064,0.2943 -4.0625,0.90625 -1.171887,0.59898 -2.22397,1.53648 -3.1875,2.8125 l 0,-11.71875 -7,0 z m 168.624993,0 0,11.71875 c -0.96356,-1.27602 -2.01564,-2.21352 -3.1875,-2.8125 -1.15887,-0.61195 -2.4896,-0.90622 -4,-0.90625 -2.69532,3e-5 -4.92449,1.07034 -6.65625,3.21875 -1.73177,2.13544 -2.59375,4.87762 -2.59375,8.25 0,3.37241 0.86198,6.13282 2.59375,8.28125 1.73176,2.13542 3.96093,3.21875 6.65625,3.21875 1.52342,0 2.87238,-0.30729 4.03125,-0.90625 1.15884,-0.59896 2.19269,-1.52344 3.15625,-2.8125 l 0,3.15625 7.03125,0 0,-30.40625 -7.03125,0 z m -60.46875,2.3125 0,6.21875 -3.46875,0 0,5 3.46875,0 0,9.28125 c 0,2.76042 0.57291,4.71615 1.71875,5.875 1.15885,1.14583 3.11457,1.71875 5.875,1.71875 l 6,0 0,-5 -3.59375,0 c -1.19793,1e-5 -2.00262,-0.17968 -2.40625,-0.53125 -0.40366,-0.36458 -0.59376,-1.04687 -0.59375,-2.0625 l 0,-9.28125 7.1875,0 0,-5 -7.1875,0 0,-6.21875 -7,0 z m -69.062493,5.6875 c -3.776052,3e-5 -6.73959,1.00003 -8.875,3.03125 -2.122399,2.03127 -3.187502,4.84377 -3.1875,8.4375 -2e-6,3.59376 1.065101,6.40625 3.1875,8.4375 2.13541,2.03125 5.098948,3.0625 8.875,3.0625 3.763003,0 6.703105,-1.03125 8.8125,-3.0625 2.122367,-2.03125 3.187467,-4.84374 3.187497,-8.4375 -3e-5,-3.59373 -1.06513,-6.40623 -3.187497,-8.4375 -2.109395,-2.03122 -5.049497,-3.03122 -8.8125,-3.03125 z m 27.499997,0 c -3.77605,3e-5 -6.73959,1.00003 -8.875,3.03125 -2.1224,2.03127 -3.1875,4.84377 -3.1875,8.4375 0,3.59376 1.0651,6.40625 3.1875,8.4375 2.13541,2.03125 5.09895,3.0625 8.875,3.0625 3.762996,0 6.703096,-1.03125 8.812496,-3.0625 2.12237,-2.03125 3.18747,-4.84374 3.1875,-8.4375 -3e-5,-3.59373 -1.06513,-6.40623 -3.1875,-8.4375 -2.1094,-2.03122 -5.0495,-3.03122 -8.812496,-3.03125 z m 25.468746,0 c -3.28126,3e-5 -5.69271,0.56773 -7.28125,1.6875 -1.58854,1.11982 -2.40625,2.83856 -2.40625,5.15625 0,2.14846 0.625,3.72658 1.875,4.78125 1.24999,1.0547 3.45051,1.79689 6.5625,2.1875 l 1.21875,0.15625 c 1.41926,0.16928 2.37499,0.40626 2.84375,0.71875 0.48176,0.29949 0.71873,0.75001 0.71875,1.375 -2e-5,0.74219 -0.34116,1.3099 -1.03125,1.6875 -0.69012,0.37761 -1.72658,0.5625 -3.09375,0.5625 -1.51043,0 -2.9974,-0.16145 -4.46875,-0.5 -1.45834,-0.33854 -2.88802,-0.85416 -4.28125,-1.53125 l 0,5.3125 c 1.6276,0.45573 3.21354,0.8099 4.75,1.03125 1.54947,0.23437 3.05468,0.34375 4.5,0.34375 3.41144,0 5.96873,-0.57812 7.6875,-1.75 1.71873,-1.17187 2.56248,-2.91927 2.5625,-5.25 -2e-5,-2.22655 -0.60679,-3.86457 -1.84375,-4.90625 -1.237,-1.04165 -3.63804,-1.79425 -7.21875,-2.25 l -1.25,-0.1875 c -1.26303,-0.14321 -2.13022,-0.35675 -2.625,-0.65625 -0.48178,-0.29946 -0.71876,-0.72133 -0.71875,-1.28125 -1e-5,-0.69008 0.33072,-1.20571 0.96875,-1.53125 0.65103,-0.33852 1.64061,-0.49998 2.96875,-0.5 1.23697,2e-5 2.54426,0.15627 3.9375,0.46875 1.39321,0.31252 2.84634,0.78127 4.34375,1.40625 l 0,-5.3125 c -1.66669,-0.41664 -3.237,-0.74216 -4.65625,-0.9375 -1.41929,-0.19529 -2.77345,-0.28122 -4.0625,-0.28125 z m 45.0625,0 c -3.77605,3e-5 -6.7448,1.01826 -8.90625,3.0625 -2.14844,2.04429 -3.21875,4.83856 -3.21875,8.40625 0,3.63282 1.09375,6.48178 3.28125,8.5 2.20051,2.00521 5.29166,3 9.25,3 1.65363,0 3.31509,-0.17448 4.96875,-0.5 1.65362,-0.3125 3.28383,-0.78125 4.9375,-1.40625 l 0,-5.375 c -1.62763,0.88542 -3.20054,1.5573 -4.75,2 -1.53648,0.42969 -3.05991,0.625 -4.53125,0.625 -1.82293,0 -3.23439,-0.39843 -4.25,-1.21875 -1.01563,-0.82031 -1.61199,-2.04686 -1.78125,-3.6875 l 16.34375,0 0,-2 c -3e-5,-3.46352 -1.02346,-6.24217 -3.09375,-8.3125 -2.05731,-2.07029 -4.81252,-3.09372 -8.25,-3.09375 z m -0.0312,4.65625 c 1.24998,2e-5 2.263,0.39846 3.03125,1.21875 0.78123,0.80731 1.15623,1.89064 1.15625,3.21875 l -9.0625,0 c 0.20832,-1.43227 0.71614,-2.52602 1.5625,-3.28125 0.84634,-0.76821 1.95832,-1.15623 3.3125,-1.15625 z m -97.999993,0.34375 c 1.523422,2e-5 2.692692,0.56773 3.5,1.6875 0.807274,1.10679 1.187482,2.68491 1.1875,4.78125 -1.8e-5,2.09637 -0.380226,3.72397 -1.1875,4.84375 -0.807308,1.10678 -1.976578,1.65625 -3.5,1.65625 -1.549491,0 -2.742199,-0.54947 -3.5625,-1.65625 -0.807301,-1.11978 -1.218759,-2.74738 -1.21875,-4.84375 -9e-6,-2.09634 0.411449,-3.67446 1.21875,-4.78125 0.820301,-1.11977 2.013009,-1.68748 3.5625,-1.6875 z m 27.499997,0 c 1.523416,2e-5 2.692686,0.56773 3.499996,1.6875 0.80727,1.10679 1.18748,2.68491 1.1875,4.78125 -2e-5,2.09637 -0.38023,3.72397 -1.1875,4.84375 -0.80731,1.10678 -1.97658,1.65625 -3.499996,1.65625 -1.54949,0 -2.7422,-0.54947 -3.5625,-1.65625 -0.8073,-1.11978 -1.21876,-2.74738 -1.21875,-4.84375 -1e-5,-2.09634 0.41145,-3.67446 1.21875,-4.78125 0.8203,-1.11977 2.01301,-1.68748 3.5625,-1.6875 z m -54.937497,0.0625 c 1.497379,2e-5 2.624982,0.56252 3.40625,1.65625 0.794252,1.09377 1.18748,2.66668 1.1875,4.75 -2e-5,2.08335 -0.393248,3.68751 -1.1875,4.78125 -0.781268,1.09376 -1.908871,1.625 -3.40625,1.625 -1.497409,0 -2.661471,-0.53124 -3.46875,-1.625 -0.794282,-1.10676 -1.18751,-2.71092 -1.1875,-4.78125 -1e-5,-2.0703 0.393218,-3.62498 1.1875,-4.71875 0.807279,-1.10675 1.971341,-1.68748 3.46875,-1.6875 z m 152.374993,0 c 1.49738,2e-5 2.62498,0.56252 3.40625,1.65625 0.79425,1.09377 1.18748,2.66668 1.1875,4.75 -2e-5,2.08335 -0.39325,3.68751 -1.1875,4.78125 -0.78127,1.09376 -1.90887,1.625 -3.40625,1.625 -1.48439,0 -2.61199,-0.53124 -3.40625,-1.625 -0.78126,-1.09374 -1.18751,-2.6979 -1.1875,-4.78125 -1e-5,-2.08332 0.40624,-3.65623 1.1875,-4.75 0.79426,-1.09373 1.92186,-1.65623 3.40625,-1.65625 z"
       id="text2985-0"
       inkscape:connector-curvature="0" />
  </g>
</svg>
